<svg xmlns="http://www.w3.org/2000/svg" xmlns:xlink="http://www.w3.org/1999/xlink" width="860" height="345" viewBox="0 0 860 345">
  <defs>
    <style>
      .cls-1 {
        fill: #639d31;
      }

      .cls-1, .cls-2, .cls-3, .cls-4, .cls-5, .cls-6, .cls-7 {
        fill-rule: evenodd;
      }

      .cls-2 {
        fill: #3c485d;
      }

      .cls-3 {
        fill: #81be3a;
      }

      .cls-4 {
        fill: url(#linear-gradient);
      }

      .cls-5 {
        fill: url(#linear-gradient-2);
      }

      .cls-6 {
        fill: url(#linear-gradient-3);
      }

      .cls-7 {
        fill: url(#linear-gradient-4);
      }
    </style>
    <linearGradient id="linear-gradient" x1="341.297" y1="197.719" x2="341.297" y2="51.438" gradientUnits="userSpaceOnUse">
      <stop offset="0" stop-color="#3c485d"/>
      <stop offset="1" stop-color="#508b1d"/>
    </linearGradient>
    <linearGradient id="linear-gradient-2" x1="424.39" y1="33" x2="500.86" y2="109.469" gradientUnits="userSpaceOnUse">
      <stop offset="0" stop-color="#82be45"/>
      <stop offset="1" stop-color="#4f8922"/>
    </linearGradient>
    <linearGradient id="linear-gradient-3" x1="580.078" y1="144.969" x2="580.078" y2="21.406" gradientUnits="userSpaceOnUse">
      <stop offset="0" stop-color="#81bd19"/>
      <stop offset="1" stop-color="#81be45"/>
    </linearGradient>
    <linearGradient id="linear-gradient-4" x1="629.468" y1="83.719" x2="629.468" y2="2.125" gradientUnits="userSpaceOnUse">
      <stop offset="0" stop-color="#81bd19"/>
      <stop offset="1" stop-color="#508b1d"/>
    </linearGradient>
  </defs>
  <path id="GetDuma_Casanova_Scotia_" data-name="GetDuma(Casanova Scotia)" class="cls-1" d="M1,273.006V303.67Q1,342,39.33,342h68.994V276.839H47v23h38.33V319h-46Q24,319,24,303.67V273.006q0-15.331,15.332-15.332h68.994v-23H39.33Q1,234.676,1,273.006H1Zm122.656-38.33V342H230.98V319H146.654V299.837h76.66v-23h-76.66V257.674H230.98v-23H123.656Zm229.981,23v-23H246.312v23h42.164V342h23V257.674h42.163Z"/>
  <path id="GetDuma_Casanova_Scotia_copy" data-name="GetDuma(Casanova Scotia) copy" class="cls-2" d="M437.963,234.676H368.969V342h68.994q38.329,0,38.33-38.33V273.006q0-38.329-38.33-38.33h0Zm0,84.326h-46V257.674h46q15.332,0,15.332,15.332V303.67Q453.3,319,437.963,319h0Zm91.992,23h30.664q38.329,0,38.33-38.33V234.676h-23V303.67q0,15.333-15.332,15.332H529.955q-15.333,0-15.332-15.332V234.676h-23V303.67q0,38.331,38.33,38.33h0Zm137.988-37.41,30.664-30.664V342h23V234.676H705.354l-37.411,37.41-37.41-37.41H614.281V342h23V273.926Zm104.871-.92L790.6,272.853l17.785,30.817H772.814ZM724.135,342H750.66l8.892-15.332h62.1L830.463,342h26.6L790.6,226.856Z"/>
  <path id="Color_Fill_2" data-name="Color Fill 2" class="cls-3" d="M4.9,187.117s558.356,101.5,848.4-131.04C853.3,56.077,628.591,326.064,4.9,187.117Z"/>
  <g>
    <path id="_4" data-name="4" class="cls-4" d="M551.3,115.414c-7.2-.49-13.438-1.074-19.688-1.311-27.811-1.055-53.061-9.688-76.376-24.78-15.784-10.217-32.049-19.659-49.958-25.884-12.578-4.371-25.26-8.491-38.313-11.024-10.264-1.992-20.725-.467-31.065.532-23.06,2.23-45.674,7.235-68.437,11.269-29.209,5.176-58.353,4.708-87.592.553-12.26-1.742-24.535-3.273-36.551-6.428-5.649-1.483-8.633-.035-10.792,4.517-2.334,4.921-1.391,10,2.741,13.157,4.806,3.671,10.537,5.381,16.3,6.776,23.2,5.619,46.856,6.645,70.6,6.539a292.016,292.016,0,0,0,71.81-8.951c18.365-4.728,36.824-5.565,55.442-1.422-0.031,1.168-1.119,1.353-1.826,1.812a103.5,103.5,0,0,0-33.122,33.782c-2.833,4.726-6.085,9.2-9.067,13.837-9.323,14.5-22.723,22.219-39.764,23.841-7.194.684-14.394,1.358-21.6,1.806a21.783,21.783,0,0,0-13.5,5.777c-2.457,2.184-4.866,4.424-7.352,6.575-6.355,5.5-13.592,8.907-22.122,9.289a24.986,24.986,0,0,0-9.564,2.146c-6.726,3.138-7.157,6.019-1.6,10.592-1.59.465-2.518-1.129-4-1.437-0.462,2.039.862,3.017,2.022,3.926,8.492,6.653,17.761,8.888,28.067,4.69a73.953,73.953,0,0,0,12.358-6.982,141.042,141.042,0,0,1,15.5-8.645c9.1-4.43,18.131-6,28.486-3.988,33.875,6.586,63.792-2.892,90.164-24.46,10.183-8.328,20.141-16.932,30.163-25.454,10.84-9.217,23.038-15.586,37.172-18.026a8.549,8.549,0,0,1,4.6.182c37.557,13.4,76.008,13.983,114.907,7.919A16.669,16.669,0,0,0,551.3,115.414Z"/>
    <path id="_3" data-name="3" class="cls-5" d="M346.667,33.008c16.144,5.175,32.113,10.9,48.141,16.471,23.67,8.221,45.425,20.022,65.96,34.136,23.594,16.218,49.994,23.154,78.218,25.445,12.584,1.022,24.569.209,36.509-3.549,2.916-.918,4.044-1.455,2.3-4.753-4.015-7.584-4.45-16.064-5.164-24.4-1.722-20.107-8.318-27.722-28.368-31.763A173.478,173.478,0,0,0,487.3,42.566a303,303,0,0,1-107.791-4.672A241.035,241.035,0,0,0,346.667,33.008Z"/>
    <path id="_2" data-name="2" class="cls-6" d="M693.807,133.328c-0.21,6.346-2.4,8.7-9.5,10.2,0.031,1.411,1.269,1.095,1.987,1.232,10.113,1.921,19.795-8.427,17.391-18.657-2.219-9.438-8.341-16.279-15.713-22.018-8.36-6.509-18.287-9.788-28.418-12.263-9.129-2.23-18.383-3.947-27.5-6.495a202.755,202.755,0,0,1,40.718-14.963c-2.5-2.228-4.389-4.156-6.517-5.776-14.963-11.393-30.1-22.633-47.272-30.509a139.283,139.283,0,0,0-70.048-12.215c-27.775,2.222-55.489,5.2-83.225,7.89a48.229,48.229,0,0,0-9.609,1.874c10.885,0.595,21.776,1.1,32.654,1.8,20.378,1.319,40.681,3.282,60.558,8.279,8.063,2.027,15.937,4.554,22.8,9.5,4.959,3.577,7.432,8.189,7.106,14.458a190.628,190.628,0,0,0-.223,20.436c0.993,17.84,8.86,27.762,25.589,31,16.479,3.186,33.156,4.068,49.821,5.3,6.427,0.474,12.82,1.411,19.244,1.951,3.023,0.255,3.671,1.14,2.606,4.161-2.486,7.053,1.934,13.731,8.532,13.418C688.688,141.745,691.506,139.057,693.807,133.328Z"/>
    <path id="_1" data-name="1" class="cls-7" d="M533.169,11.176c10.589,0.837,21.164,2.069,31.77,2.44,34.433,1.2,63.886,14.2,89.675,36.684,10.694,9.324,22.02,17.918,33.061,26.84,9.447,7.635,19.237,9.175,29.566,1.647a5.759,5.759,0,0,1,2.151-.88c4.983-1.067,5.827-2.217,5.068-7.225q-0.476-3.13-1.134-6.231c-0.642-3.023-.68-5.739,1.081-8.665,2.674-4.442,1.334-9.071-1.384-12.973-2.7-3.872-6.927-6.875-8.848-11.026-1.963-4.242,1.417-9.061,1.171-13.811-0.26-5-.149-5.048-5.105-4.059-3.067.612-6.62,2.935-9.011,1.55-2.1-1.218-2.611-5.188-3.857-7.927-2.956-6.5-2.964-6.493-9.3-3.458a4.158,4.158,0,0,0-1.4.715c-5.69,6.69-12.873,4.531-19.921,3.57A445.919,445.919,0,0,0,538.025,9.674c-1.657.255-3.3,0.6-4.949,0.906Z"/>
  </g>
</svg>
